HIERARCHY
ROOT Hips
{
    OFFSET 0.000000 0.000000 0.000000
    CHANNELS 6 Xposition Yposition Zposition Zrotation Xrotation Yrotation
        JOINT Chest
        {
            OFFSET -0.000000 31.471069 -0.000000
            CHANNELS 3 Zrotation Xrotation Yrotation
            JOINT Neck
            {
                OFFSET -0.000000 23.202770 0.000000
                CHANNELS 3 Zrotation Xrotation Yrotation
                JOINT Head
                {
                    OFFSET -0.000000 11.000000 0.000000
                    CHANNELS 3 Zrotation Xrotation Yrotation
                    End Site
                    {
                        OFFSET -0.000000 17.000000 0.000000
                    }
                }
            }
            JOINT LeftCollar
            {
                OFFSET -0.000000 23.202770 0.000000
                CHANNELS 3 Zrotation Xrotation Yrotation
                JOINT LeftShoulder
                {
                    OFFSET 21.000000 -0.000000 0.000000
                    CHANNELS 3 Zrotation Xrotation Yrotation
                    JOINT LeftElbow
                    {
                        OFFSET 23.506504 0.000000 0.000000
                        CHANNELS 3 Zrotation Xrotation Yrotation
                        JOINT LeftWrist
                        {
                            OFFSET 26.183235 0.000000 0.000000
                            CHANNELS 3 Zrotation Xrotation Yrotation
                            End Site
                            {
                                OFFSET 0.000000 -15.000001 0.000000
                            }
                        }
                    }
                }
            }
            JOINT RightCollar
            {
                OFFSET -0.000000 23.202770 0.000000
                CHANNELS 3 Zrotation Xrotation Yrotation
                JOINT RightShoulder
                {
                    OFFSET -21.000000 0.000000 0.000000
                    CHANNELS 3 Zrotation Xrotation Yrotation
                    JOINT RightElbow
                    {
                        OFFSET -23.506504 0.000000 0.000000
                        CHANNELS 3 Zrotation Xrotation Yrotation
                        JOINT RightWrist
                        {
                            OFFSET -26.183235 0.000000 0.000000
                            CHANNELS 3 Zrotation Xrotation Yrotation
                            End Site
                            {
                                OFFSET -0.000000 -15.000001 0.000000
                            }
                        }
                    }
                }
            }
        }
    JOINT LeftHip
    {
        OFFSET 12.000000 0.000000 0.000000
        CHANNELS 3 Zrotation Xrotation Yrotation
        JOINT LeftKnee
        {
            OFFSET -0.000000 -41.026867 0.000000
            CHANNELS 3 Zrotation Xrotation Yrotation
            JOINT LeftAnkle
            {
                OFFSET -0.000000 -42.711906 0.000000
                CHANNELS 3 Zrotation Xrotation Yrotation
                End Site
                {
                    OFFSET -0.000000 -5.000000 17.000000
                }
            }
        }
    }
    JOINT RightHip
    {
        OFFSET -12.000000 0.000000 0.000000
        CHANNELS 3 Zrotation Xrotation Yrotation
        JOINT RightKnee
        {
            OFFSET -0.000000 -41.026867 0.000000
            CHANNELS 3 Zrotation Xrotation Yrotation
            JOINT RightAnkle
            {
                OFFSET -0.000000 -42.711906 0.000000
                CHANNELS 3 Zrotation Xrotation Yrotation
                End Site
                {
                    OFFSET -0.000000 -5.000000 17.000000
                }
            }
        }
    }
}
MOTION
Frames:    5
Frame Time:    0.010000
-68.124382    81.206566    -78.681206    4.512881    10.847710    64.173599    -14.748946    10.341532    23.564022    -6.805245    11.758511    -27.024239    6.712528    -14.327463    -26.850412    -15.065708    -2.223510    16.488007    -46.889103    32.170277    -22.528076    46.249245    -41.294373    -84.943703    153.078186    37.783329    35.840374    19.688704    2.924433    17.001734    -28.517467    18.179287    83.279228    -27.133257    -16.376869    61.423210    -121.772102    -15.519982    3.094209    1.424264    -15.353495    -3.429163    -28.807219    40.684952    6.829236    5.541778    -26.957312    29.825603    -17.505606    -12.127748    -16.902590    44.885258    65.284180    -55.303417    -13.304034    -12.529136    -12.523787    
-67.864052    81.189392    -78.383820    4.853199    10.697434    62.846104    -14.596858    11.547660    23.899511    -7.106409    11.871119    -26.371229    7.427544    -14.556708    -26.123892    -14.845402    -2.118328    15.922153    -48.855255    30.774607    -20.693075    43.724842    -40.208035    -86.851837    153.099579    37.938713    35.496414    19.655691    2.960566    17.219021    -28.696714    18.603378    83.600479    -27.235434    -16.298853    60.823452    -119.083260    -15.132087    2.807191    2.170379    -14.289554    -1.833877    -28.958130    40.268261    6.625663    5.350873    -26.772186    29.518290    -19.239492    -13.329870    -17.237373    47.800667    66.057770    -57.483982    -11.021438    -13.994871    -13.256019    
-67.591759    81.200150    -78.075630    5.208960    10.515001    61.508125    -14.366300    12.775219    24.123186    -7.356741    12.018861    -25.650986    8.028742    -14.754425    -25.341152    -14.636244    -2.013713    15.436068    -50.497410    29.801073    -19.147726    41.552830    -39.139496    -88.223892    152.897644    38.091988    35.152218    19.665411    3.005023    17.354521    -28.800858    19.192541    83.885712    -27.365269    -16.207975    60.206371    -116.168686    -14.689155    2.422006    2.847379    -13.119337    -0.281944    -28.990210    39.780693    6.356034    5.076186    -26.572298    29.161955    -20.982752    -14.519777    -17.489080    50.222202    66.465012    -59.300827    -8.432262    -15.775735    -13.948654    
-67.310722    81.242332    -77.757332    5.562856    10.312813    60.202377    -14.050002    13.992842    24.198980    -7.546964    12.192525    -24.870340    8.491145    -14.883804    -24.515985    -14.443251    -1.932129    15.064756    -51.806133    29.374155    -17.936884    39.854675    -38.156631    -88.928352    152.372009    38.266983    34.927067    19.734283    3.047265    17.387022    -28.785469    19.963861    84.104233    -27.517397    -16.118431    59.556126    -113.081680    -14.248606    1.970692    3.412619    -11.873061    1.153104    -28.883505    39.205780    6.028938    4.726496    -26.380667    28.791111    -22.733198    -15.712031    -17.655857    52.060818    66.521889    -60.737080    -5.852288    -17.671806    -14.438721    
-67.024948    81.319954    -77.427658    5.899156    10.103272    58.964836    -13.641642    15.169893    24.097395    -7.675708    12.386855    -24.039097    8.809999    -14.917249    -23.661209    -14.278193    -1.852650    14.814343    -52.771454    29.490593    -17.098242    38.618881    -37.218754    -88.968117    151.520264    38.580437    34.914436    19.885193    3.058427    17.296320    -28.603268    20.949806    84.218346    -27.679981    -16.013998    58.882271    -109.945656    -13.819219    1.481219    3.838557    -10.583416    2.408838    -28.627823    38.527336    5.656309    4.314287    -26.211996    28.438107    -24.480700    -16.918179    -17.745356    53.257050    66.256615    -61.789459    -3.565072    -19.461016    -14.636565    
